<?xml version="1.0" encoding="utf-8"?>
<!-- Generator: Adobe Illustrator 17.0.1, SVG Export Plug-In . SVG Version: 6.00 Build 0)  -->
<!DOCTYPE svg PUBLIC "-//W3C//DTD SVG 1.1//EN" "http://www.w3.org/Graphics/SVG/1.1/DTD/svg11.dtd">
<svg version="1.1" id="Layer_1" xmlns="http://www.w3.org/2000/svg" xmlns:xlink="http://www.w3.org/1999/xlink" x="0px" y="0px"
	 width="58.093px" height="58px" viewBox="0 0 58.093 58" enable-background="new 0 0 58.093 58" xml:space="preserve">
<g>
	<circle fill="#EBEBEB" cx="29.093" cy="29" r="29"/>
	<g>
		<path fill="#A9B6C9" d="M14.388,38.732c-1.427,0-2.579,1.159-2.579,2.579c0,1.426,1.153,2.579,2.579,2.579
			c1.419,0,2.579-1.153,2.579-2.579C16.968,39.892,15.808,38.732,14.388,38.732L14.388,38.732z M14.388,42.663
			c-0.75,0-1.352-0.608-1.352-1.352s0.602-1.351,1.352-1.351c0.75,0,1.351,0.607,1.351,1.351S15.138,42.663,14.388,42.663
			L14.388,42.663z"/>
		<path fill="#A9B6C9" d="M27.51,38.732c-1.426,0-2.579,1.159-2.579,2.579c0,1.426,1.154,2.579,2.579,2.579
			c1.42,0,2.573-1.153,2.573-2.579C30.089,39.892,28.937,38.732,27.51,38.732L27.51,38.732z M27.51,42.663
			c-0.75,0-1.351-0.608-1.351-1.352s0.607-1.351,1.351-1.351s1.352,0.607,1.352,1.351S28.254,42.663,27.51,42.663L27.51,42.663z"/>
		<path fill="#A9B6C9" d="M33.567,38.732c-1.426,0-2.579,1.159-2.579,2.579c0,1.426,1.154,2.579,2.579,2.579
			c1.42,0,2.574-1.153,2.574-2.579C36.142,39.892,34.988,38.732,33.567,38.732L33.567,38.732z M33.567,42.663
			c-0.75,0-1.351-0.608-1.351-1.352s0.607-1.351,1.351-1.351s1.352,0.607,1.352,1.351S34.312,42.663,33.567,42.663L33.567,42.663z"
			/>
		<g>
			<path fill="#A9B6C9" d="M48.903,18.818c-1.1-2.564-2.97-4.43-5.556-5.533c-1.293-0.552-2.646-0.833-4.062-0.833
				c-1.415,0-2.759,0.279-4.051,0.833c-2.565,1.1-4.443,2.964-5.544,5.533c-0.553,1.288-0.821,2.637-0.821,4.05
				c0,0.155,0.003,0.309,0.011,0.462h1.267c-0.007-0.153-0.012-0.307-0.012-0.462c0-1.655,0.406-3.185,1.22-4.586
				c0.818-1.406,1.941-2.521,3.343-3.342c1.403-0.822,2.931-1.233,4.586-1.233s3.193,0.413,4.598,1.233
				c1.413,0.824,2.533,1.939,3.354,3.342c0.822,1.403,1.232,2.931,1.232,4.586c0,1.655-0.408,3.196-1.232,4.61
				c-0.818,1.404-1.941,2.519-3.354,3.342c-1.252,0.73-2.612,1.138-4.064,1.218v1.256c1.222-0.063,2.4-0.338,3.529-0.819
				c2.585-1.104,4.456-2.98,5.556-5.545c0.554-1.292,0.834-2.648,0.834-4.062C49.737,21.454,49.458,20.109,48.903,18.818z"/>
			<path fill="#A9B6C9" d="M39.948,22.777v-5.909c0-0.354-0.308-0.639-0.662-0.639c-0.331,0-0.628,0.285-0.628,0.639v6.001
				c0,0.012,0.022,0.057,0.022,0.091c-0.022,0.205,0.035,0.377,0.172,0.514l3.411,3.411c0.228,0.228,0.65,0.228,0.879,0
				c0.262-0.263,0.245-0.643,0-0.89L39.948,22.777z"/>
			<path fill="#A9B6C9" d="M9.347,41.311h1.786c0-1.792,1.464-3.255,3.255-3.255c1.793,0,3.256,1.464,3.256,3.255h6.61
				c0-1.792,1.462-3.255,3.255-3.255c1.383,0,2.561,0.875,3.032,2.091c0.471-1.217,1.643-2.091,3.026-2.091
				c1.792,0,3.256,1.464,3.256,3.255h0.05c0.496,0,0.899-0.403,0.899-0.897v-1.136c0.347-0.129,0.596-0.452,0.596-0.838V25.759
				c0-0.495-0.403-0.898-0.899-0.898H19.579c-0.501,0-0.905,0.403-0.905,0.898V37.02h17.641v0.349H17.799v-5.637
				c0-0.497-0.404-0.9-0.899-0.9h-2.115c-0.497,0-1.116,0.341-1.376,0.763l-1.687,2.703c-0.267,0.416-0.849,0.925-1.308,1.117
				l-1.134,0.477c-0.459,0.192-0.83,0.756-0.83,1.246v3.276C8.449,40.908,8.856,41.311,9.347,41.311L9.347,41.311z M12.386,34.682
				l1.774-2.84c0.129-0.21,0.441-0.384,0.688-0.384h1.67c0.248,0,0.452,0.205,0.452,0.452v2.697c0,0.249-0.204,0.452-0.452,0.452
				h-3.919C12.349,35.067,12.249,34.893,12.386,34.682L12.386,34.682z"/>
		</g>
	</g>
</g>
</svg>
