<?xml version="1.0" encoding="utf-8"?>
<!-- Generator: Adobe Illustrator 17.0.1, SVG Export Plug-In . SVG Version: 6.00 Build 0)  -->
<!DOCTYPE svg PUBLIC "-//W3C//DTD SVG 1.1//EN" "http://www.w3.org/Graphics/SVG/1.1/DTD/svg11.dtd">
<svg version="1.1" id="Layer_1" xmlns="http://www.w3.org/2000/svg" xmlns:xlink="http://www.w3.org/1999/xlink" x="0px" y="0px"
	 width="56px" height="56px" viewBox="0 0 56 56" enable-background="new 0 0 56 56" xml:space="preserve">
<g>
	<circle fill="#EBEBEB" cx="27.938" cy="27.896" r="27.896"/>
	<g>
		<path fill="#AAB6C9" d="M35.792,34.686c-1.607,0-2.912-1.307-2.912-2.913v-4.838c0-1.606,1.306-2.913,2.912-2.913h7.59
			c0.047,0,0.092,0.001,0.137,0.003v-4.82c0-1.241-1.006-2.246-2.246-2.246h-27.85c-1.241,0-2.246,1.006-2.246,2.246v20.295
			c0,1.241,1.006,2.246,2.246,2.246h27.849c1.241,0,2.246-1.006,2.246-2.246v-4.819c-0.045,0.002-0.09,0.003-0.137,0.003
			L35.792,34.686L35.792,34.686z"/>
		<path fill="#AAB6C9" d="M43.382,25.62h-7.59c-0.727,0-1.317,0.589-1.317,1.317v4.838c0,0.727,0.59,1.317,1.317,1.317h7.59
			c0.727,0,1.317-0.59,1.317-1.317v-4.838C44.699,26.209,44.109,25.62,43.382,25.62L43.382,25.62z M38.407,31.254
			c-1.049,0-1.901-0.85-1.901-1.9c0-1.05,0.851-1.901,1.901-1.901c1.05,0,1.901,0.85,1.901,1.901
			C40.308,30.405,39.456,31.254,38.407,31.254L38.407,31.254z"/>
		<path fill="#AAB6C9" d="M37.362,12.846c-0.503-1.521-2.143-2.346-3.665-1.844l-11.41,3.77h15.71L37.362,12.846z"/>
	</g>
</g>
</svg>
