<?xml version="1.0" encoding="utf-8"?>
<!-- Generator: Adobe Illustrator 17.0.1, SVG Export Plug-In . SVG Version: 6.00 Build 0)  -->
<!DOCTYPE svg PUBLIC "-//W3C//DTD SVG 1.1//EN" "http://www.w3.org/Graphics/SVG/1.1/DTD/svg11.dtd">
<svg version="1.1" id="Layer_1" xmlns="http://www.w3.org/2000/svg" xmlns:xlink="http://www.w3.org/1999/xlink" x="0px" y="0px"
	 width="56px" height="56px" viewBox="0 0 56 56" enable-background="new 0 0 56 56" xml:space="preserve">
<g>
	<circle fill="#EBEBEB" cx="28.021" cy="27.999" r="27.958"/>
	<g>
		<path fill="#AAB6C9" d="M28.022,12.486L13.69,20.904v20.211h28.664V20.904L28.022,12.486z M24.759,39.412h-3.122v-3.121h3.122
			V39.412z M24.759,34.588h-3.122v-3.121h3.122V34.588z M24.759,29.764h-3.122v-3.121h3.122V29.764z M29.583,39.412h-3.122v-3.121
			h3.122V39.412z M29.583,34.588h-3.122v-3.121h3.122V34.588z M29.583,29.764h-3.122v-3.121h3.122V29.764z M34.407,39.412h-3.122
			v-3.121h3.122V39.412z M34.407,34.588h-3.122v-3.121h3.122V34.588z M34.407,29.764h-3.122v-3.121h3.122V29.764z M36.96,39.412
			H36.11V24.94H19.934v14.472h-0.851V24.089h17.878L36.96,39.412L36.96,39.412z"/>
	</g>
</g>
</svg>
